<svg xmlns="http://www.w3.org/2000/svg" xmlns:xlink="http://www.w3.org/1999/xlink" width="500" zoomAndPan="magnify" viewBox="0 0 375 374.999991" height="500" preserveAspectRatio="xMidYMid meet" version="1.0"><defs><g/><clipPath id="9d29dcf037"><path d="M 130.507812 131 L 155 131 L 155 144 L 130.507812 144 Z M 130.507812 131 " clip-rule="nonzero"/></clipPath><clipPath id="199babe496"><path d="M 154 107.527344 L 160 107.527344 L 160 130 L 154 130 Z M 154 107.527344 " clip-rule="nonzero"/></clipPath><clipPath id="c757a1bdfb"><path d="M 218 152 L 230.910156 152 L 230.910156 173 L 218 173 Z M 218 152 " clip-rule="nonzero"/></clipPath><clipPath id="a8e74b78e6"><path d="M 185 193 L 197 193 L 197 202.027344 L 185 202.027344 Z M 185 193 " clip-rule="nonzero"/></clipPath></defs><path fill="#203d4a" d="M 170.949219 191.25 C 167.378906 190.445312 163.996094 189.433594 160.839844 188.238281 C 161.476562 188.96875 162.132812 189.679688 162.816406 190.363281 C 167.410156 194.957031 173.121094 198.433594 179.503906 200.355469 C 176.382812 198.226562 173.570312 195.257812 171.195312 191.632812 C 171.113281 191.507812 171.03125 191.378906 170.949219 191.25 " fill-opacity="1" fill-rule="evenodd"/><path fill="#203d4a" d="M 156.253906 183.972656 C 159.839844 184.988281 163.734375 185.730469 167.851562 186.160156 C 164.960938 182.292969 162.507812 177.652344 160.6875 172.457031 C 156.449219 172.480469 152.542969 172.328125 149.066406 172.007812 C 148.882812 171.992188 148.703125 171.972656 148.523438 171.957031 C 150.375 176.460938 153.015625 180.515625 156.253906 183.972656 " fill-opacity="1" fill-rule="evenodd"/><path fill="#4daacf" d="M 140.945312 164.628906 C 144.105469 165.382812 147.664062 166.039062 151.542969 166.582031 C 151.027344 163.386719 150.75 160.046875 150.75 156.609375 C 150.75 153.175781 151.027344 149.835938 151.542969 146.636719 C 147.667969 147.183594 144.105469 147.839844 140.945312 148.59375 C 140.4375 148.714844 139.9375 148.835938 139.449219 148.960938 C 138.96875 151.4375 138.71875 153.992188 138.71875 156.609375 C 138.71875 159.226562 138.96875 161.785156 139.449219 164.257812 C 139.9375 164.382812 140.4375 164.507812 140.945312 164.628906 " fill-opacity="1" fill-rule="evenodd"/><g clip-path="url(#9d29dcf037)"><path fill="#ffcc00" d="M 130.980469 137.710938 C 134.082031 139.316406 137.449219 141.300781 141.003906 143.609375 C 145.34375 140.222656 149.914062 137.640625 154.433594 135.945312 C 150.734375 134.085938 147.058594 132.605469 143.488281 131.523438 C 138.898438 132.683594 134.488281 134.667969 130.496094 137.460938 C 130.65625 137.542969 130.816406 137.625 130.980469 137.710938 " fill-opacity="1" fill-rule="evenodd"/></g><g clip-path="url(#199babe496)"><path fill="#b565cf" d="M 154.859375 129.488281 C 156.101562 126.351562 157.632812 123.167969 159.445312 119.988281 C 159.40625 119.839844 159.367188 119.691406 159.328125 119.546875 C 158.253906 115.351562 157.953125 111.269531 158.484375 107.527344 C 155.601562 113.542969 154.324219 120.105469 154.621094 126.59375 C 154.667969 127.5625 154.746094 128.527344 154.859375 129.488281 " fill-opacity="1" fill-rule="evenodd"/></g><path fill="#cc3f3f" d="M 162.402344 127.726562 C 161.6875 132.554688 161.835938 137.933594 162.917969 143.507812 C 166.761719 141.300781 170.988281 139.082031 175.507812 136.925781 C 173.710938 131.449219 172.414062 126.398438 171.671875 122.09375 C 168.367188 123.832031 165.265625 125.722656 162.402344 127.726562 " fill-opacity="1" fill-rule="evenodd"/><path fill="#203d4a" d="M 176.648438 124.554688 C 178.785156 122.15625 181.117188 119.804688 183.636719 117.539062 C 182.183594 114.007812 181.378906 110.96875 181.316406 108.636719 C 177.988281 112.679688 176.453125 118.269531 176.648438 124.554688 " fill-opacity="1" fill-rule="evenodd"/><path fill="#e0a526" d="M 181.875 133.089844 C 181.441406 137.386719 181.351562 142.574219 181.628906 148.3125 C 184.242188 147.867188 186.925781 147.460938 189.660156 147.09375 C 192.398438 146.730469 195.09375 146.417969 197.734375 146.164062 C 196.5 140.550781 195.046875 135.570312 193.503906 131.535156 L 193.367188 131.183594 C 191.472656 131.316406 189.554688 131.511719 187.617188 131.773438 C 185.683594 132.03125 183.777344 132.34375 181.914062 132.710938 Z M 181.875 133.089844 " fill-opacity="1" fill-rule="evenodd"/><path fill="#b565cf" d="M 182.964844 127.351562 C 184.679688 127.5625 186.40625 127.820312 188.148438 128.132812 C 189.890625 128.441406 191.601562 128.796875 193.285156 129.195312 C 192.742188 123.539062 191.511719 119.980469 189.664062 119.648438 C 187.8125 119.320312 185.429688 122.234375 182.964844 127.351562 " fill-opacity="1" fill-rule="evenodd"/><path fill="#203d4a" d="M 194.773438 122.765625 C 196.148438 124.648438 197.359375 127.550781 198.363281 131.234375 C 201.742188 131.496094 205.023438 131.933594 208.179688 132.527344 C 204.5 127.429688 199.875 123.9375 194.773438 122.765625 " fill-opacity="1" fill-rule="evenodd"/><path fill="#203d4a" d="M 209.757812 134.910156 C 206.292969 134.167969 202.652344 133.625 198.882812 133.308594 C 199.886719 137.617188 200.667969 142.847656 201.148438 148.664062 C 206.21875 148.894531 211.039062 149.296875 215.5 149.839844 C 214.308594 144.210938 212.328125 139.132812 209.757812 134.910156 " fill-opacity="1" fill-rule="evenodd"/><path fill="#203d4a" d="M 212.453125 135.535156 C 214.769531 139.773438 216.546875 144.714844 217.621094 150.113281 C 221.820312 150.683594 225.664062 151.386719 229.0625 152.195312 C 229.242188 152.238281 229.417969 152.28125 229.59375 152.324219 C 228.390625 147.601562 226.347656 143.214844 223.628906 139.335938 C 220.222656 137.824219 216.46875 136.542969 212.453125 135.535156 " fill-opacity="1" fill-rule="evenodd"/><path fill="#203d4a" d="M 211.023438 133.117188 C 214.59375 133.921875 217.980469 134.9375 221.132812 136.132812 C 220.5 135.398438 219.839844 134.691406 219.15625 134.007812 C 214.5625 129.410156 208.851562 125.933594 202.46875 124.015625 C 205.589844 126.144531 208.402344 129.113281 210.777344 132.734375 C 210.859375 132.863281 210.941406 132.992188 211.023438 133.117188 " fill-opacity="1" fill-rule="evenodd"/><path fill="#2c90b6" d="M 200.046875 151.488281 C 197.371094 151.121094 194.625 150.796875 191.820312 150.519531 C 189.019531 150.242188 186.261719 150.023438 183.566406 149.855469 C 182.949219 153.476562 182.429688 157.328125 182.03125 161.328125 C 181.636719 165.332031 181.390625 169.210938 181.289062 172.882812 C 183.964844 173.246094 186.710938 173.570312 189.511719 173.847656 C 192.316406 174.125 195.074219 174.347656 197.769531 174.511719 C 198.386719 170.890625 198.90625 167.039062 199.300781 163.039062 C 199.699219 159.039062 199.941406 155.160156 200.046875 151.488281 " fill-opacity="1" fill-rule="evenodd"/><path fill="#a3cf6e" d="M 174.710938 159.539062 C 176.03125 155.78125 177.4375 152.191406 178.882812 148.832031 C 173.917969 147.34375 169.152344 146.113281 164.703125 145.152344 C 163.089844 148.054688 161.664062 151.195312 160.488281 154.539062 C 159.316406 157.882812 158.460938 161.226562 157.90625 164.5 C 161.980469 166.535156 166.46875 168.554688 171.269531 170.5 C 172.242188 166.976562 173.390625 163.296875 174.710938 159.539062 " fill-opacity="1" fill-rule="evenodd"/><path fill="#203d4a" d="M 201.304688 150.703125 C 201.554688 154.347656 201.691406 158.199219 201.691406 162.183594 C 201.691406 166.167969 201.554688 170.023438 201.304688 173.667969 C 206.480469 173.425781 211.382812 173.007812 215.898438 172.4375 C 216.460938 169.164062 216.765625 165.730469 216.765625 162.183594 C 216.765625 158.640625 216.460938 155.203125 215.898438 151.933594 C 211.382812 151.363281 206.480469 150.945312 201.304688 150.703125 " fill-opacity="1" fill-rule="evenodd"/><g clip-path="url(#c757a1bdfb)"><path fill="#203d4a" d="M 218 152.210938 C 218.515625 155.410156 218.789062 158.75 218.789062 162.183594 C 218.789062 165.621094 218.515625 168.960938 218 172.15625 C 221.875 171.613281 225.433594 170.957031 228.597656 170.203125 C 229.105469 170.082031 229.601562 169.960938 230.089844 169.832031 C 230.570312 167.359375 230.824219 164.800781 230.824219 162.183594 C 230.824219 159.570312 230.570312 157.011719 230.089844 154.535156 C 229.601562 154.410156 229.105469 154.289062 228.597656 154.167969 C 225.433594 153.414062 221.875 152.757812 218 152.210938 " fill-opacity="1" fill-rule="evenodd"/></g><path fill="#203d4a" d="M 229.0625 172.175781 C 225.664062 172.984375 221.820312 173.683594 217.621094 174.253906 C 216.546875 179.65625 214.769531 184.597656 212.453125 188.832031 C 216.46875 187.828125 220.222656 186.546875 223.628906 185.03125 C 226.347656 181.152344 228.390625 176.769531 229.59375 172.046875 C 229.417969 172.089844 229.242188 172.132812 229.0625 172.175781 " fill-opacity="1" fill-rule="evenodd"/><path fill="#203d4a" d="M 221.132812 188.238281 C 217.980469 189.433594 214.59375 190.445312 211.023438 191.25 C 210.941406 191.378906 210.859375 191.507812 210.777344 191.632812 C 208.402344 195.257812 205.589844 198.226562 202.46875 200.355469 C 208.851562 198.433594 214.5625 194.957031 219.15625 190.363281 C 219.839844 189.679688 220.5 188.96875 221.132812 188.238281 " fill-opacity="1" fill-rule="evenodd"/><path fill="#203d4a" d="M 194.773438 201.601562 C 199.875 200.433594 204.5 196.9375 208.179688 191.839844 C 205.023438 192.4375 201.742188 192.875 198.363281 193.136719 C 197.359375 196.820312 196.148438 199.71875 194.773438 201.601562 " fill-opacity="1" fill-rule="evenodd"/><path fill="#203d4a" d="M 198.882812 191.0625 C 202.652344 190.742188 206.292969 190.203125 209.757812 189.460938 C 212.328125 185.234375 214.308594 180.15625 215.5 174.527344 C 211.039062 175.074219 206.21875 175.472656 201.148438 175.703125 C 200.667969 181.523438 199.886719 186.75 198.882812 191.0625 " fill-opacity="1" fill-rule="evenodd"/><path fill="#203d4a" d="M 196.851562 190.847656 C 197.847656 186.644531 198.628906 181.511719 199.109375 175.789062 C 196.460938 175.882812 193.746094 175.933594 190.988281 175.933594 C 188.226562 175.933594 185.511719 175.882812 182.863281 175.789062 C 183.34375 181.511719 184.125 186.644531 185.121094 190.847656 L 185.207031 191.214844 C 187.105469 191.332031 189.035156 191.390625 190.988281 191.390625 C 192.941406 191.390625 194.867188 191.332031 196.765625 191.214844 Z M 196.851562 190.847656 " fill-opacity="1" fill-rule="evenodd"/><g clip-path="url(#a8e74b78e6)"><path fill="#203d4a" d="M 190.988281 193.417969 C 189.21875 193.417969 187.46875 193.371094 185.746094 193.277344 C 187.273438 198.746094 189.109375 202.035156 190.988281 202.035156 C 192.863281 202.035156 194.699219 198.746094 196.226562 193.277344 C 194.503906 193.371094 192.753906 193.417969 190.988281 193.417969 " fill-opacity="1" fill-rule="evenodd"/></g><path fill="#203d4a" d="M 187.199219 201.601562 C 185.828125 199.71875 184.613281 196.820312 183.613281 193.136719 C 180.230469 192.875 176.949219 192.4375 173.792969 191.839844 C 177.472656 196.9375 182.097656 200.433594 187.199219 201.601562 " fill-opacity="1" fill-rule="evenodd"/><path fill="#203d4a" d="M 172.21875 189.460938 C 175.679688 190.203125 179.320312 190.742188 183.089844 191.0625 C 182.085938 186.75 181.304688 181.523438 180.824219 175.703125 C 175.753906 175.472656 170.933594 175.074219 166.472656 174.527344 C 167.664062 180.15625 169.644531 185.234375 172.21875 189.460938 " fill-opacity="1" fill-rule="evenodd"/><g fill="#ffffff" fill-opacity="1"><g transform="translate(147.383403, 234.739701)"><g><path d="M 17.125 -23.171875 L 17.125 -18.640625 L 7.6875 -18.640625 L 7.6875 -13.765625 L 14.75 -13.765625 L 14.75 -9.375 L 7.6875 -9.375 L 7.6875 0 L 2.046875 0 L 2.046875 -23.171875 Z M 17.125 -23.171875 "/></g></g></g><g fill="#ffffff" fill-opacity="1"><g transform="translate(167.084362, 234.739701)"><g><path d="M 13.859375 0 L 9.046875 -8.75 L 7.6875 -8.75 L 7.6875 0 L 2.046875 0 L 2.046875 -23.171875 L 11.515625 -23.171875 C 13.335938 -23.171875 14.890625 -22.847656 16.171875 -22.203125 C 17.460938 -21.566406 18.425781 -20.691406 19.0625 -19.578125 C 19.707031 -18.472656 20.03125 -17.238281 20.03125 -15.875 C 20.03125 -14.332031 19.59375 -12.957031 18.71875 -11.75 C 17.851562 -10.539062 16.578125 -9.679688 14.890625 -9.171875 L 20.234375 0 Z M 7.6875 -12.734375 L 11.1875 -12.734375 C 12.21875 -12.734375 12.988281 -12.984375 13.5 -13.484375 C 14.019531 -13.992188 14.28125 -14.710938 14.28125 -15.640625 C 14.28125 -16.523438 14.019531 -17.21875 13.5 -17.71875 C 12.988281 -18.226562 12.21875 -18.484375 11.1875 -18.484375 L 7.6875 -18.484375 Z M 7.6875 -12.734375 "/></g></g></g><g fill="#ffffff" fill-opacity="1"><g transform="translate(190.250318, 234.739701)"><g><path d="M 7.6875 -18.640625 L 7.6875 -13.953125 L 15.25 -13.953125 L 15.25 -9.609375 L 7.6875 -9.609375 L 7.6875 -4.515625 L 16.234375 -4.515625 L 16.234375 0 L 2.046875 0 L 2.046875 -23.171875 L 16.234375 -23.171875 L 16.234375 -18.640625 Z M 7.6875 -18.640625 "/></g></g></g><g fill="#ffffff" fill-opacity="1"><g transform="translate(209.753287, 234.739701)"><g><path d="M 7.6875 -18.640625 L 7.6875 -13.953125 L 15.25 -13.953125 L 15.25 -9.609375 L 7.6875 -9.609375 L 7.6875 -4.515625 L 16.234375 -4.515625 L 16.234375 0 L 2.046875 0 L 2.046875 -23.171875 L 16.234375 -23.171875 L 16.234375 -18.640625 Z M 7.6875 -18.640625 "/></g></g></g><g fill="#ffbd59" fill-opacity="1"><g transform="translate(179.693263, 253.139691)"><g><path d="M 4.328125 0.078125 C 3.609375 0.078125 2.957031 -0.0859375 2.375 -0.421875 C 1.789062 -0.753906 1.328125 -1.21875 0.984375 -1.8125 C 0.640625 -2.414062 0.46875 -3.09375 0.46875 -3.84375 C 0.46875 -4.59375 0.640625 -5.265625 0.984375 -5.859375 C 1.328125 -6.453125 1.789062 -6.914062 2.375 -7.25 C 2.957031 -7.582031 3.609375 -7.75 4.328125 -7.75 C 5.046875 -7.75 5.695312 -7.582031 6.28125 -7.25 C 6.863281 -6.914062 7.320312 -6.453125 7.65625 -5.859375 C 8 -5.265625 8.171875 -4.59375 8.171875 -3.84375 C 8.171875 -3.082031 8 -2.40625 7.65625 -1.8125 C 7.320312 -1.21875 6.863281 -0.753906 6.28125 -0.421875 C 5.695312 -0.0859375 5.046875 0.078125 4.328125 0.078125 Z M 4.328125 -0.796875 C 4.859375 -0.796875 5.335938 -0.921875 5.765625 -1.171875 C 6.191406 -1.421875 6.53125 -1.773438 6.78125 -2.234375 C 7.03125 -2.691406 7.15625 -3.226562 7.15625 -3.84375 C 7.15625 -4.457031 7.03125 -4.992188 6.78125 -5.453125 C 6.53125 -5.910156 6.191406 -6.265625 5.765625 -6.515625 C 5.347656 -6.765625 4.867188 -6.890625 4.328125 -6.890625 C 3.785156 -6.890625 3.300781 -6.765625 2.875 -6.515625 C 2.445312 -6.265625 2.109375 -5.910156 1.859375 -5.453125 C 1.617188 -4.992188 1.5 -4.457031 1.5 -3.84375 C 1.5 -3.226562 1.617188 -2.691406 1.859375 -2.234375 C 2.109375 -1.773438 2.445312 -1.421875 2.875 -1.171875 C 3.300781 -0.921875 3.785156 -0.796875 4.328125 -0.796875 Z M 4.328125 -0.796875 "/></g></g></g><g fill="#ffbd59" fill-opacity="1"><g transform="translate(189.774154, 253.139691)"><g><path d="M 5.1875 -7.671875 L 5.1875 -6.859375 L 1.84375 -6.859375 L 1.84375 -4.265625 L 4.546875 -4.265625 L 4.546875 -3.453125 L 1.84375 -3.453125 L 1.84375 0 L 0.84375 0 L 0.84375 -7.671875 Z M 5.1875 -7.671875 "/></g></g></g><g fill="#ffffff" fill-opacity="1"><g transform="translate(109.692098, 283.922998)"><g><path d="M 1.09375 -11.609375 C 1.09375 -13.898438 1.585938 -15.941406 2.578125 -17.734375 C 3.566406 -19.523438 4.945312 -20.921875 6.71875 -21.921875 C 8.488281 -22.929688 10.492188 -23.4375 12.734375 -23.4375 C 15.484375 -23.4375 17.835938 -22.707031 19.796875 -21.25 C 21.753906 -19.800781 23.066406 -17.820312 23.734375 -15.3125 L 17.515625 -15.3125 C 17.054688 -16.28125 16.398438 -17.015625 15.546875 -17.515625 C 14.703125 -18.023438 13.742188 -18.28125 12.671875 -18.28125 C 10.929688 -18.28125 9.519531 -17.675781 8.4375 -16.46875 C 7.363281 -15.257812 6.828125 -13.640625 6.828125 -11.609375 C 6.828125 -9.585938 7.363281 -7.972656 8.4375 -6.765625 C 9.519531 -5.554688 10.929688 -4.953125 12.671875 -4.953125 C 13.742188 -4.953125 14.703125 -5.203125 15.546875 -5.703125 C 16.398438 -6.210938 17.054688 -6.953125 17.515625 -7.921875 L 23.734375 -7.921875 C 23.066406 -5.410156 21.753906 -3.429688 19.796875 -1.984375 C 17.835938 -0.546875 15.484375 0.171875 12.734375 0.171875 C 10.492188 0.171875 8.488281 -0.328125 6.71875 -1.328125 C 4.945312 -2.335938 3.566406 -3.734375 2.578125 -5.515625 C 1.585938 -7.296875 1.09375 -9.328125 1.09375 -11.609375 Z M 1.09375 -11.609375 "/></g></g></g><g fill="#ffffff" fill-opacity="1"><g transform="translate(136.47919, 283.922998)"><g><path d="M 13 0.234375 C 10.820312 0.234375 8.828125 -0.269531 7.015625 -1.28125 C 5.203125 -2.300781 3.757812 -3.71875 2.6875 -5.53125 C 1.625 -7.34375 1.09375 -9.382812 1.09375 -11.65625 C 1.09375 -13.914062 1.625 -15.945312 2.6875 -17.75 C 3.757812 -19.550781 5.203125 -20.957031 7.015625 -21.96875 C 8.828125 -22.988281 10.820312 -23.5 13 -23.5 C 15.175781 -23.5 17.171875 -22.988281 18.984375 -21.96875 C 20.804688 -20.957031 22.238281 -19.550781 23.28125 -17.75 C 24.320312 -15.945312 24.84375 -13.914062 24.84375 -11.65625 C 24.84375 -9.382812 24.316406 -7.34375 23.265625 -5.53125 C 22.210938 -3.71875 20.78125 -2.300781 18.96875 -1.28125 C 17.164062 -0.269531 15.175781 0.234375 13 0.234375 Z M 13 -4.921875 C 14.851562 -4.921875 16.332031 -5.535156 17.4375 -6.765625 C 18.550781 -7.992188 19.109375 -9.625 19.109375 -11.65625 C 19.109375 -13.695312 18.550781 -15.328125 17.4375 -16.546875 C 16.332031 -17.765625 14.851562 -18.375 13 -18.375 C 11.132812 -18.375 9.644531 -17.769531 8.53125 -16.5625 C 7.414062 -15.351562 6.859375 -13.71875 6.859375 -11.65625 C 6.859375 -9.601562 7.414062 -7.96875 8.53125 -6.75 C 9.644531 -5.53125 11.132812 -4.921875 13 -4.921875 Z M 13 -4.921875 "/></g></g></g><g fill="#ffffff" fill-opacity="1"><g transform="translate(164.057996, 283.922998)"><g><path d="M 7.59375 -23.171875 L 7.59375 -9.3125 C 7.59375 -7.925781 7.929688 -6.859375 8.609375 -6.109375 C 9.296875 -5.359375 10.296875 -4.984375 11.609375 -4.984375 C 12.929688 -4.984375 13.941406 -5.359375 14.640625 -6.109375 C 15.347656 -6.859375 15.703125 -7.925781 15.703125 -9.3125 L 15.703125 -23.171875 L 21.34375 -23.171875 L 21.34375 -9.34375 C 21.34375 -7.269531 20.90625 -5.519531 20.03125 -4.09375 C 19.15625 -2.664062 17.972656 -1.585938 16.484375 -0.859375 C 14.992188 -0.128906 13.335938 0.234375 11.515625 0.234375 C 9.691406 0.234375 8.054688 -0.117188 6.609375 -0.828125 C 5.171875 -1.546875 4.035156 -2.625 3.203125 -4.0625 C 2.367188 -5.507812 1.953125 -7.269531 1.953125 -9.34375 L 1.953125 -23.171875 Z M 7.59375 -23.171875 "/></g></g></g><g fill="#ffffff" fill-opacity="1"><g transform="translate(188.964755, 283.922998)"><g><path d="M 13.859375 0 L 9.046875 -8.75 L 7.6875 -8.75 L 7.6875 0 L 2.046875 0 L 2.046875 -23.171875 L 11.515625 -23.171875 C 13.335938 -23.171875 14.890625 -22.847656 16.171875 -22.203125 C 17.460938 -21.566406 18.425781 -20.691406 19.0625 -19.578125 C 19.707031 -18.472656 20.03125 -17.238281 20.03125 -15.875 C 20.03125 -14.332031 19.59375 -12.957031 18.71875 -11.75 C 17.851562 -10.539062 16.578125 -9.679688 14.890625 -9.171875 L 20.234375 0 Z M 7.6875 -12.734375 L 11.1875 -12.734375 C 12.21875 -12.734375 12.988281 -12.984375 13.5 -13.484375 C 14.019531 -13.992188 14.28125 -14.710938 14.28125 -15.640625 C 14.28125 -16.523438 14.019531 -17.21875 13.5 -17.71875 C 12.988281 -18.226562 12.21875 -18.484375 11.1875 -18.484375 L 7.6875 -18.484375 Z M 7.6875 -12.734375 "/></g></g></g><g fill="#ffffff" fill-opacity="1"><g transform="translate(212.123132, 283.922998)"><g><path d="M 10.421875 0.234375 C 8.734375 0.234375 7.21875 -0.0390625 5.875 -0.59375 C 4.53125 -1.144531 3.457031 -1.957031 2.65625 -3.03125 C 1.851562 -4.113281 1.429688 -5.414062 1.390625 -6.9375 L 7.390625 -6.9375 C 7.484375 -6.070312 7.78125 -5.414062 8.28125 -4.96875 C 8.789062 -4.519531 9.453125 -4.296875 10.265625 -4.296875 C 11.097656 -4.296875 11.753906 -4.484375 12.234375 -4.859375 C 12.722656 -5.242188 12.96875 -5.78125 12.96875 -6.46875 C 12.96875 -7.039062 12.773438 -7.515625 12.390625 -7.890625 C 12.003906 -8.265625 11.53125 -8.570312 10.96875 -8.8125 C 10.40625 -9.050781 9.609375 -9.328125 8.578125 -9.640625 C 7.085938 -10.097656 5.867188 -10.554688 4.921875 -11.015625 C 3.972656 -11.484375 3.15625 -12.164062 2.46875 -13.0625 C 1.789062 -13.96875 1.453125 -15.144531 1.453125 -16.59375 C 1.453125 -18.75 2.234375 -20.4375 3.796875 -21.65625 C 5.359375 -22.882812 7.394531 -23.5 9.90625 -23.5 C 12.457031 -23.5 14.507812 -22.882812 16.0625 -21.65625 C 17.625 -20.4375 18.460938 -18.738281 18.578125 -16.5625 L 12.46875 -16.5625 C 12.425781 -17.3125 12.148438 -17.898438 11.640625 -18.328125 C 11.140625 -18.753906 10.492188 -18.96875 9.703125 -18.96875 C 9.015625 -18.96875 8.460938 -18.785156 8.046875 -18.421875 C 7.628906 -18.066406 7.421875 -17.546875 7.421875 -16.859375 C 7.421875 -16.109375 7.769531 -15.523438 8.46875 -15.109375 C 9.175781 -14.691406 10.28125 -14.242188 11.78125 -13.765625 C 13.28125 -13.253906 14.492188 -12.765625 15.421875 -12.296875 C 16.359375 -11.835938 17.164062 -11.164062 17.84375 -10.28125 C 18.53125 -9.40625 18.875 -8.273438 18.875 -6.890625 C 18.875 -5.578125 18.535156 -4.378906 17.859375 -3.296875 C 17.191406 -2.222656 16.21875 -1.363281 14.9375 -0.71875 C 13.664062 -0.0820312 12.160156 0.234375 10.421875 0.234375 Z M 10.421875 0.234375 "/></g></g></g><g fill="#ffffff" fill-opacity="1"><g transform="translate(234.06094, 283.922998)"><g><path d="M 7.6875 -18.640625 L 7.6875 -13.953125 L 15.25 -13.953125 L 15.25 -9.609375 L 7.6875 -9.609375 L 7.6875 -4.515625 L 16.234375 -4.515625 L 16.234375 0 L 2.046875 0 L 2.046875 -23.171875 L 16.234375 -23.171875 L 16.234375 -18.640625 Z M 7.6875 -18.640625 "/></g></g></g><g fill="#ffbd59" fill-opacity="1"><g transform="translate(255.257799, 282.398038)"><g><path d="M 3.28125 0.078125 C 2.769531 0.078125 2.3125 -0.0078125 1.90625 -0.1875 C 1.507812 -0.375 1.195312 -0.625 0.96875 -0.9375 C 0.75 -1.257812 0.632812 -1.628906 0.625 -2.046875 L 1.6875 -2.046875 C 1.726562 -1.679688 1.878906 -1.375 2.140625 -1.125 C 2.398438 -0.882812 2.78125 -0.765625 3.28125 -0.765625 C 3.757812 -0.765625 4.132812 -0.882812 4.40625 -1.125 C 4.675781 -1.363281 4.8125 -1.671875 4.8125 -2.046875 C 4.8125 -2.335938 4.726562 -2.570312 4.5625 -2.75 C 4.40625 -2.9375 4.207031 -3.078125 3.96875 -3.171875 C 3.726562 -3.273438 3.398438 -3.378906 2.984375 -3.484375 C 2.484375 -3.617188 2.078125 -3.75 1.765625 -3.875 C 1.460938 -4.007812 1.203125 -4.21875 0.984375 -4.5 C 0.773438 -4.78125 0.671875 -5.160156 0.671875 -5.640625 C 0.671875 -6.054688 0.773438 -6.425781 0.984375 -6.75 C 1.203125 -7.070312 1.503906 -7.320312 1.890625 -7.5 C 2.273438 -7.675781 2.71875 -7.765625 3.21875 -7.765625 C 3.9375 -7.765625 4.523438 -7.582031 4.984375 -7.21875 C 5.441406 -6.863281 5.695312 -6.390625 5.75 -5.796875 L 4.65625 -5.796875 C 4.613281 -6.085938 4.457031 -6.34375 4.1875 -6.5625 C 3.914062 -6.789062 3.554688 -6.90625 3.109375 -6.90625 C 2.691406 -6.90625 2.347656 -6.796875 2.078125 -6.578125 C 1.816406 -6.367188 1.6875 -6.066406 1.6875 -5.671875 C 1.6875 -5.398438 1.765625 -5.175781 1.921875 -5 C 2.085938 -4.820312 2.285156 -4.6875 2.515625 -4.59375 C 2.742188 -4.5 3.066406 -4.394531 3.484375 -4.28125 C 3.992188 -4.132812 4.398438 -3.992188 4.703125 -3.859375 C 5.015625 -3.722656 5.28125 -3.515625 5.5 -3.234375 C 5.71875 -2.953125 5.828125 -2.570312 5.828125 -2.09375 C 5.828125 -1.71875 5.726562 -1.363281 5.53125 -1.03125 C 5.332031 -0.695312 5.035156 -0.425781 4.640625 -0.21875 C 4.253906 -0.0195312 3.800781 0.078125 3.28125 0.078125 Z M 3.28125 0.078125 "/></g></g></g></svg>